<?xml version="1.0" standalone="no"?>
<!DOCTYPE svg PUBLIC "-//W3C//DTD SVG 20010904//EN"
 "http://www.w3.org/TR/2001/REC-SVG-20010904/DTD/svg10.dtd">
<svg version="1.0" fill="lightgreen" xmlns="http://www.w3.org/2000/svg"
 width="24px" height="24px" viewBox="0 0 512.000000 512.000000"
 preserveAspectRatio="xMidYMid meet">
<metadata>
Created by potrace 1.16, written by Peter Selinger 2001-2019
</metadata>
<g transform="translate(0.000000,512.000000) scale(0.100000,-0.100000)"
fill="lightgreen" stroke="none">
<path d="M4699 5088 c-99 -72 -670 -570 -684 -598 -13 -26 -15 -276 -15 -2207
0 -2156 0 -2178 20 -2211 11 -18 34 -41 52 -52 31 -19 51 -20 408 -20 357 0
377 1 408 20 18 11 41 34 52 52 20 33 20 56 20 2489 l0 2456 -22 33 c-31 45
-82 70 -144 70 -41 0 -59 -6 -95 -32z"/>
<path d="M3455 4011 c-50 -23 -682 -564 -712 -610 l-23 -34 0 -1631 c0 -1610
0 -1631 20 -1664 11 -18 34 -41 52 -52 31 -19 51 -20 408 -20 357 0 377 1 408
20 18 11 41 34 52 52 20 33 20 55 20 1939 l0 1906 -23 34 c-24 37 -97 79 -137
79 -14 0 -43 -9 -65 -19z"/>
<path d="M2175 2917 c-47 -22 -698 -583 -717 -619 -17 -31 -18 -103 -18 -1113
0 -1060 0 -1081 20 -1113 11 -18 34 -41 52 -52 31 -19 51 -20 408 -20 357 0
377 1 408 20 18 11 41 34 52 52 20 33 20 54 20 1389 l0 1356 -22 33 c-13 18
-35 42 -50 53 -33 25 -113 32 -153 14z"/>
<path d="M885 1813 c-51 -28 -700 -589 -713 -617 -9 -20 -12 -165 -12 -559 0
-513 1 -533 20 -565 11 -18 34 -41 52 -52 31 -19 51 -20 408 -20 357 0 377 1
408 20 18 11 41 34 52 52 20 32 20 49 18 848 l-3 815 -23 30 c-48 61 -142 83
-207 48z"/>
</g>
</svg>
